<svg width="720" height="240" viewBox="0 0 720 240" fill="none" xmlns="http://www.w3.org/2000/svg">
<g clip-path="url(#clip0_2030_6504)">
<path d="M54.9474 171.03H189.474V214.5H47.3684C21.2021 214.5 0 193.351 0 167.25V25.5H47.3684V163.47C47.3684 167.647 50.76 171.03 54.9474 171.03ZM159.158 68.97H246.316C250.503 68.97 253.895 72.3531 253.895 76.53V214.5H301.263V76.53C301.263 72.3531 304.655 68.97 308.842 68.97H396V25.5H159.158V68.97ZM634.604 25.5C634.604 25.5 630.436 25.2165 628.333 27.3522C625.737 29.9982 623.065 37.2558 623.065 37.2558L577.895 151.62L532.724 37.2558C532.724 37.2558 530.053 29.9982 527.457 27.3522C525.354 25.2165 521.185 25.5 521.185 25.5H435.789V214.462H483.158V70.5576C483.158 67.9494 485.47 65.8326 487.819 65.8326C492.613 65.8326 494.621 71.5593 497.046 77.7207C499.472 83.8821 548.981 207.337 548.981 207.337C550.686 211.665 554.893 214.519 559.554 214.519H596.236C600.897 214.519 605.103 211.665 606.808 207.337C606.808 207.337 656.318 83.8821 658.743 77.7207C661.168 71.5593 663.177 65.8326 667.971 65.8326C672.764 65.8326 672.632 67.9494 672.632 70.5576V214.5H720V25.5H634.604Z" fill="#F2665B"/>
</g>
<defs>
<clipPath id="clip0_2030_6504">
<rect width="720" height="189" fill="white" transform="translate(0 25.5)"/>
</clipPath>
</defs>
</svg>
